# xmcd CD database file
# 
# Track frame offsets:
# 	150
# 	16560
# 	30362
# 	57742
# 	77050
# 	90122
# 	112592
# 	132412
# 	152170
# 	171815
# 
# Disc length: 2580 seconds
# 
# Submitted via: Nero 5.5.2.3
# 
# Revision: 1
# Processed by: cddbd v1.4b41PL2 Copyright (c) Steve Scherf et al.
#
DISCID=650a120a
DTITLE=Peter Rowan - Medicine Trail
DYEAR=1900
DGENRE=
TTITLE0=Riding High In Texas
TTITLE1=My Foolish Pride
TTITLE2=River of Stone
TTITLE3=Revelation
TTITLE4=Living on the Line
TTITLE5=Medicine Trail
TTITLE6=Blues Come Bother Me
TTITLE7=Dreaming I Love You
TTITLE8=Maui Momma
TTITLE9=Prairie Lullabye
EXTD=recorded in TX, VA, NM, NY, CA
EXTT0=
EXTT1=
EXTT2=
EXTT3=
EXTT4=
EXTT5=
EXTT6=
EXTT7=
EXTT8=
EXTT9=
PLAYORDER=
